<svg width="18" height="18" viewBox="0 0 18 18" fill="none" xmlns="http://www.w3.org/2000/svg">
<path d="M4.39705 8.52941C4.39705 9.0817 4.84476 9.52941 5.39705 9.52941C5.94933 9.52941 6.39705 9.0817 6.39705 8.52941H4.39705ZM5.39705 4.76471L6.39705 4.76471L5.39705 4.76471ZM12.603 4.76471H13.603V4.76471L12.603 4.76471ZM11.603 8.52941C11.603 9.0817 12.0507 9.52941 12.603 9.52941C13.1552 9.52941 13.603 9.0817 13.603 8.52941H11.603ZM9 1V2V1ZM1.05595 14.9613L2.05278 15.0408L1.05595 14.9613ZM16.9441 14.9613L17.9409 14.8818L16.9441 14.9613ZM16.4812 9.15795L15.4844 9.23745L16.4812 9.15795ZM1.51878 9.15795L0.52195 9.07845L1.51878 9.15795ZM6.39705 8.52941L6.39705 4.76471L4.39705 4.76471L4.39705 8.52941H6.39705ZM11.603 4.76471V8.52941H13.603V4.76471H11.603ZM9 2C10.3966 2 11.603 3.19596 11.603 4.76471L13.603 4.76471C13.603 2.17507 11.5831 -3.57628e-07 9 0V2ZM6.39705 4.76471C6.39705 3.19596 7.60336 2 9 2V0C6.41693 -2.38419e-07 4.39705 2.17507 4.39705 4.76471L6.39705 4.76471ZM5.10929 6.70588H12.8907V4.70588H5.10929V6.70588ZM15.4844 9.23745L15.9472 15.0408L17.9409 14.8818L17.478 9.07845L15.4844 9.23745ZM15.1488 16H2.8512V18H15.1488V16ZM2.05278 15.0408L2.51562 9.23745L0.52195 9.07845L0.0591139 14.8818L2.05278 15.0408ZM2.8512 16C2.3624 16 2.10456 15.9975 1.93037 15.9723C1.79004 15.952 1.87503 15.9388 1.95993 16.0352L0.458952 17.357C0.811471 17.7573 1.25929 17.896 1.64391 17.9517C1.99467 18.0025 2.4239 18 2.8512 18V16ZM0.0591139 14.8818C0.0233154 15.3307 -0.0135213 15.7665 0.00517225 16.1246C0.0251314 16.507 0.112892 16.964 0.458952 17.357L1.95993 16.0352C2.03838 16.1243 2.01136 16.1909 2.00245 16.0203C1.99228 15.8255 2.0125 15.5459 2.05278 15.0408L0.0591139 14.8818ZM15.9472 15.0408C15.9875 15.5459 16.0077 15.8255 15.9975 16.0203C15.9886 16.1909 15.9616 16.1243 16.0401 16.0352L17.541 17.357C17.8871 16.964 17.9749 16.507 17.9948 16.1246C18.0135 15.7665 17.9767 15.3307 17.9409 14.8818L15.9472 15.0408ZM15.1488 18C15.5761 18 16.0053 18.0025 16.3561 17.9517C16.7407 17.896 17.1885 17.7573 17.541 17.357L16.0401 16.0352C16.125 15.9388 16.21 15.952 16.0696 15.9723C15.8954 15.9975 15.6376 16 15.1488 16V18ZM12.8907 6.70588C13.7056 6.70588 14.2159 6.70803 14.5911 6.75895C14.9338 6.80545 15.0263 6.87706 15.075 6.92391L16.4612 5.48218C15.9928 5.03187 15.4333 4.8549 14.86 4.77711C14.3192 4.70373 13.6493 4.70588 12.8907 4.70588V6.70588ZM17.478 9.07845C17.4148 8.28506 17.3618 7.59738 17.249 7.05049C17.1312 6.47954 16.9242 5.92735 16.4612 5.48218L15.075 6.92391C15.1291 6.9759 15.2133 7.08192 15.2902 7.4545C15.372 7.85115 15.417 8.39234 15.4844 9.23745L17.478 9.07845ZM5.10929 4.70588C4.3507 4.70588 3.68078 4.70373 3.13998 4.77711C2.56665 4.8549 2.00719 5.03187 1.53882 5.48218L2.92497 6.92391C2.97371 6.87706 3.06618 6.80545 3.40888 6.75895C3.78413 6.70803 4.29435 6.70588 5.10929 6.70588V4.70588ZM2.51562 9.23745C2.58302 8.39234 2.628 7.85115 2.70982 7.4545C2.78666 7.08192 2.8709 6.9759 2.92497 6.92391L1.53882 5.48218C1.07579 5.92735 0.86881 6.47954 0.751047 7.05049C0.638247 7.59738 0.585225 8.28506 0.52195 9.07845L2.51562 9.23745Z" fill="#181818"/>
</svg>
