<svg width="50" height="50" viewBox="0 0 50 50" fill="none" xmlns="http://www.w3.org/2000/svg">
<circle cx="25" cy="25" r="25" fill="#181818"/>
<path d="M20.9981 13H16.5556C14.5919 13 13 14.5919 13 16.5556V20.9981M29.0019 13H33.4444C35.4081 13 37 14.5919 37 16.5556V20.9981M37 29.0019V33.4444C37 35.4081 35.4081 37 33.4444 37H29.0019M13 29.0019V33.4444C13 35.4081 14.5919 37 16.5556 37H20.9981M26.7027 21.1156L20.8934 26.925M29.0824 23.4623L23.2401 29.3046M25 29.6667C22.5454 29.6667 20.5556 27.6768 20.5556 25.2222C20.5556 22.7676 22.5454 20.7778 25 20.7778C27.4546 20.7778 29.4444 22.7676 29.4444 25.2222C29.4444 27.6768 27.4546 29.6667 25 29.6667Z" stroke="white" stroke-linecap="round" stroke-linejoin="round"/>
</svg>
