<svg width="80" height="16" viewBox="0 0 80 16" fill="none" xmlns="http://www.w3.org/2000/svg">
<path d="M0 16V0H10.8423V3.83099H4.34138V6.49014H9.64009V10.0507H4.34138V16H0Z" fill="#181818"/>
<path d="M12.545 16V0H16.8863V16H12.545Z" fill="#181818"/>
<path d="M19.611 16V0H23.9524V12.169H31.1212V16H19.611Z" fill="#181818"/>
<path d="M44.5898 16V7.57183L41.9404 13.4986H39.625L36.9756 7.57183V16H32.6343V0H37.3764L40.7827 7.52676L44.2113 0H48.9311V16H44.5898Z" fill="#181818"/>
<path d="M55.2877 0H60.1411L65.1727 16H60.7645L59.8072 12.8676H55.5994L54.6643 16H50.2339L55.2877 0ZM59.117 9.93803L57.7144 4.30422L56.245 9.93803H59.117Z" fill="#181818"/>
<path d="M69.5807 0L72.4527 5.04789L75.3247 0H80L75.0352 8.11268L79.8219 16H75.1466L72.4527 11.1775L69.7588 16H65.0612L69.8479 8.11268L64.8831 0H69.5807Z" fill="#181818"/>
</svg>
