<svg width="50" height="50" viewBox="0 0 50 50" fill="none" xmlns="http://www.w3.org/2000/svg">
<circle cx="25" cy="25" r="25" fill="#181818"/>
<path d="M31 14.6077C27.2872 12.4641 22.7128 12.4641 19 14.6077C15.2872 16.7513 13 20.7128 13 25C13 29.2872 15.2872 33.2487 19 35.3923C21.9914 37.1194 25.5422 37.455 28.751 36.399L26.7059 32.3088C26.4384 31.7737 26.2991 31.1837 26.2991 30.5855C26.2991 28.4573 28.0243 26.732 30.1525 26.732H36.8746C36.9575 26.1633 37 25.5847 37 25C37 20.7128 34.7128 16.7513 31 14.6077Z" stroke="white" stroke-linecap="round" stroke-linejoin="round"/>
<path d="M17.9423 27.4898C18.2904 27.2888 18.7193 27.2888 19.0673 27.4898C19.4154 27.6908 19.6298 28.0622 19.6298 28.4641C19.6298 28.866 19.4154 29.2374 19.0673 29.4384C18.7193 29.6393 18.2904 29.6393 17.9423 29.4384C17.5943 29.2374 17.3798 28.866 17.3798 28.4641C17.3798 28.0622 17.5943 27.6908 17.9423 27.4898Z" stroke="white" stroke-linecap="round" stroke-linejoin="round"/>
<path d="M18.3754 20.1286C18.7234 19.9276 19.1523 19.9276 19.5004 20.1286C19.8484 20.3295 20.0629 20.7009 20.0629 21.1029C20.0629 21.5048 19.8484 21.8762 19.5004 22.0771C19.1523 22.2781 18.7234 22.2781 18.3754 22.0771C18.0273 21.8762 17.8129 21.5048 17.8129 21.1029C17.8129 20.7009 18.0273 20.3295 18.3754 20.1286Z" stroke="white" stroke-linecap="round" stroke-linejoin="round"/>
<path d="M24.5619 16.7889C24.9099 16.5879 25.3388 16.5879 25.6869 16.7889C26.0349 16.9898 26.2494 17.3612 26.2494 17.7631C26.2494 18.1651 26.0349 18.5365 25.6869 18.7374C25.3388 18.9384 24.9099 18.9384 24.5619 18.7374C24.2138 18.5365 23.9994 18.1651 23.9994 17.7631C23.9994 17.3612 24.2138 16.9898 24.5619 16.7889Z" stroke="white" stroke-linecap="round" stroke-linejoin="round"/>
<path d="M30.624 20.253C30.9721 20.052 31.401 20.052 31.749 20.253C32.0971 20.4539 32.3115 20.8253 32.3115 21.2272C32.3115 21.6292 32.0971 22.0006 31.749 22.2015C31.401 22.4025 30.9721 22.4025 30.624 22.2015C30.276 22.0006 30.0615 21.6292 30.0615 21.2272C30.0615 20.8253 30.276 20.4539 30.624 20.253Z" stroke="white" stroke-linecap="round" stroke-linejoin="round"/>
</svg>
