<svg width="50" height="50" viewBox="0 0 50 50" fill="none" xmlns="http://www.w3.org/2000/svg">
<circle cx="25" cy="25" r="25" fill="#181818"/>
<path d="M21.8893 34.7273C22.3236 34.9742 22.7727 35.1851 23.2321 35.3602H14.2857C13.5756 35.3602 13 34.7935 13 34.0945V18.9065C13 18.2075 13.5756 17.6408 14.2857 17.6408H21.0575L21.9951 15.2296C22.122 14.9031 22.4404 14.6875 22.7956 14.6875H30.6849C31.04 14.6875 31.3584 14.9031 31.4854 15.2296L32.4229 17.6408H35.7143C36.4244 17.6408 37 18.2075 37 18.9065V34.0945C37 34.7935 36.4244 35.3602 35.7143 35.3602H30.1965C30.6559 35.1851 31.1049 34.9742 31.5393 34.7273M21.8893 34.7273C18.9036 33.0304 17.0643 29.8943 17.0643 26.5005C17.0643 23.1066 18.9036 19.9705 21.8893 18.2736C24.875 16.5767 28.5536 16.5767 31.5393 18.2736C34.525 19.9705 36.3643 23.1066 36.3643 26.5005C36.3643 29.8943 34.525 33.0304 31.5393 34.7273M21.8893 34.7273C24.875 36.4242 28.5536 36.4242 31.5393 34.7273M23.8902 27.4028C23.7953 27.1153 23.7451 26.8111 23.7451 26.4999C23.7451 25.4559 24.3109 24.4911 25.2294 23.9691C25.6886 23.7081 26.201 23.5776 26.7134 23.5775M18.535 17.6408H15.1941L15.4216 16.6167C15.5077 16.2293 15.8561 15.9532 16.259 15.9532H17.4702C17.873 15.9532 18.2214 16.2293 18.3075 16.6167L18.535 17.6408ZM30.0701 14.6876H23.3881L23.9134 13.5056C24.0499 13.1985 24.3581 13 24.6987 13H28.7596C29.1001 13 29.4084 13.1985 29.5448 13.5056L30.0701 14.6876ZM20.7758 26.5005C20.7758 24.4119 21.9077 22.4821 23.7451 21.4378C25.5824 20.3935 27.8462 20.3935 29.6835 21.4378C31.5209 22.4821 32.6527 24.4119 32.6527 26.5005C32.6527 28.589 31.5209 30.5189 29.6835 31.5632C27.8462 32.6074 25.5824 32.6074 23.7451 31.5632C21.9077 30.5189 20.7758 28.589 20.7758 26.5005Z" stroke="white" stroke-linecap="round" stroke-linejoin="round"/>
</svg>
