<svg width="50" height="50" viewBox="0 0 50 50" fill="none" xmlns="http://www.w3.org/2000/svg">
<circle cx="25" cy="25" r="25" fill="#181818"/>
<path d="M32.2273 18.8309L31.8693 19.18L32.2273 18.8309ZM19.0002 13L19.0003 12.5L19.0002 13ZM25.8197 13.0008L25.8196 13.5008L25.8197 13.0008ZM27.0468 13.5182L26.6888 13.8673L26.6888 13.8673L27.0468 13.5182ZM27.0718 13.5439L26.7475 13.9245L27.4298 13.1948L27.0718 13.5439ZM32.1918 18.7945L32.5498 18.4454L31.811 19.1184L32.1918 18.7945ZM27.0952 13.5655L27.4532 13.2165L27.0952 13.5655ZM32.1758 18.7766L32.5338 18.4275V18.4275L32.1758 18.7766ZM17.2857 32.2855V32.7855H17.7857V32.2855H17.2857ZM32.7143 32.2855H32.2143V32.7855H32.7143V32.2855ZM33.2143 20.0278C33.2143 19.4502 32.9886 18.8954 32.5853 18.4818L31.8693 19.18C32.0905 19.4068 32.2143 19.711 32.2143 20.0278H33.2143ZM33.2143 23.693V20.0278H32.2143V23.693H33.2143ZM32.6934 24.2139C32.9811 24.2139 33.2143 23.9806 33.2143 23.693H32.2143C32.2143 23.4284 32.4288 23.2139 32.6934 23.2139V24.2139ZM17.3087 24.2139H32.6934V23.2139H17.3087V24.2139ZM16.7857 23.6909C16.7857 23.9797 17.0198 24.2139 17.3087 24.2139V23.2139C17.5722 23.2139 17.7857 23.4275 17.7857 23.6909H16.7857ZM16.7857 14.7144V23.6909H17.7857V14.7144H16.7857ZM19.0003 12.5C17.7772 12.4999 16.7857 13.4913 16.7857 14.7144H17.7857C17.7857 14.0436 18.3295 13.4999 19.0001 13.5L19.0003 12.5ZM25.8197 12.5008L19.0003 12.5L19.0001 13.5L25.8196 13.5008L25.8197 12.5008ZM27.4048 13.1692C26.9881 12.7418 26.4165 12.5008 25.8197 12.5008L25.8196 13.5008C26.1469 13.5008 26.4603 13.633 26.6888 13.8673L27.4048 13.1692ZM27.4298 13.1948L27.4048 13.1691L26.6888 13.8673L26.7138 13.893L27.4298 13.1948ZM27.3961 13.1633C26.8732 12.7178 26.0429 13.0784 26.0429 13.7905H27.0429C27.0429 13.9468 26.8622 14.0222 26.7475 13.9245L27.3961 13.1633ZM26.0429 13.7905V17.6149H27.0429V13.7905H26.0429ZM26.0429 17.6149C26.0429 18.8378 27.0342 19.8292 28.2571 19.8292V18.8292C27.5865 18.8292 27.0429 18.2856 27.0429 17.6149H26.0429ZM28.2571 19.8292H31.9429V18.8292H28.2571V19.8292ZM31.9429 19.8292C32.6544 19.8292 33.0218 18.9986 32.5727 18.4706L31.811 19.1184C31.7149 19.0055 31.7908 18.8292 31.9429 18.8292V19.8292ZM32.5853 18.4818L32.5498 18.4454L31.8339 19.1436L31.8693 19.18L32.5853 18.4818ZM26.7372 13.9145L31.8177 19.1256L32.5338 18.4275L27.4532 13.2165L26.7372 13.9145ZM31.8177 19.1256C31.7101 19.0152 31.7878 18.8292 31.9429 18.8292V19.8292C32.6735 19.8292 33.0432 18.9501 32.5338 18.4275L31.8177 19.1256ZM27.4532 13.2165C26.9379 12.6879 26.0429 13.0542 26.0429 13.7905H27.0429C27.0429 13.9493 26.8494 14.0296 26.7372 13.9145L27.4532 13.2165ZM18.1429 28.4996H31.8571V27.4996H18.1429V28.4996ZM32.2143 28.8568V36.1428H33.2143V28.8568H32.2143ZM31.8571 36.5H18.1429V37.5H31.8571V36.5ZM17.7857 36.1428V28.8568H16.7857V36.1428H17.7857ZM18.1429 36.5C17.9456 36.5 17.7857 36.3401 17.7857 36.1428H16.7857C16.7857 36.8923 17.3933 37.5 18.1429 37.5V36.5ZM32.2143 36.1428C32.2143 36.3401 32.0544 36.5 31.8571 36.5V37.5C32.6067 37.5 33.2143 36.8923 33.2143 36.1428H32.2143ZM31.8571 28.4996C32.0544 28.4996 32.2143 28.6595 32.2143 28.8568H33.2143C33.2143 28.1073 32.6067 27.4996 31.8571 27.4996V28.4996ZM18.1429 27.4996C17.3933 27.4996 16.7857 28.1073 16.7857 28.8568H17.7857C17.7857 28.6595 17.9456 28.4996 18.1429 28.4996V27.4996ZM13.2679 32.7855H17.2857V31.7855H13.2679V32.7855ZM12.5 32.0176C12.5 32.4417 12.8438 32.7855 13.2679 32.7855V31.7855C13.3961 31.7855 13.5 31.8895 13.5 32.0176H12.5ZM12.5 26.7138V32.0176H13.5V26.7138H12.5ZM16 23.2137C14.067 23.2137 12.5 24.7808 12.5 26.7138H13.5C13.5 25.333 14.6193 24.2137 16 24.2137V23.2137ZM34 23.2137H16V24.2137H34V23.2137ZM37.5 26.7138C37.5 24.7808 35.933 23.2137 34 23.2137V24.2137C35.3807 24.2137 36.5 25.333 36.5 26.7138H37.5ZM37.5 32.0176V26.7138H36.5V32.0176H37.5ZM36.7321 32.7855C37.1562 32.7855 37.5 32.4417 37.5 32.0176H36.5C36.5 31.8895 36.6039 31.7855 36.7321 31.7855V32.7855ZM32.7143 32.7855H36.7321V31.7855H32.7143V32.7855ZM32.2143 28.8568V32.2855H33.2143V28.8568H32.2143ZM17.7857 32.2855V28.8568H16.7857V32.2855H17.7857Z" fill="white"/>
</svg>
