<svg width="19" height="18" viewBox="0 0 19 18" fill="none" xmlns="http://www.w3.org/2000/svg">
<path d="M11.3292 3.81742L11.3653 3.90488C11.8032 4.96602 12.0222 5.49659 12.4684 5.81907C12.9147 6.14156 13.5005 6.19255 14.6721 6.29454L14.8839 6.31298C16.8014 6.47989 17.7601 6.56334 17.9653 7.15622C18.1704 7.74909 17.4584 8.37871 16.0344 9.63794L15.5592 10.0582C14.8383 10.6956 14.4779 11.0144 14.3099 11.4321C14.2786 11.51 14.2525 11.5899 14.2319 11.6711C14.1215 12.1066 14.227 12.5689 14.4381 13.4937L14.5038 13.7815C14.8918 15.481 15.0857 16.3308 14.7471 16.6973C14.6205 16.8343 14.456 16.9329 14.2733 16.9813C13.7843 17.111 13.0901 16.5612 11.7017 15.4615C10.79 14.7394 10.3341 14.3784 9.81075 14.2972C9.60489 14.2652 9.39511 14.2652 9.18925 14.2972C8.66588 14.3784 8.21003 14.7394 7.29832 15.4615C5.90988 16.5612 5.21566 17.111 4.72669 16.9813C4.54397 16.9329 4.37949 16.8343 4.25294 16.6973C3.91426 16.3308 4.10823 15.481 4.49617 13.7815L4.56188 13.4937C4.77297 12.5689 4.87851 12.1066 4.76809 11.6711C4.74749 11.5899 4.72144 11.51 4.6901 11.4321C4.52211 11.0144 4.16168 10.6956 3.44083 10.0582L2.96557 9.63794C1.54156 8.37871 0.82956 7.74909 1.03471 7.15622C1.23986 6.56334 2.1986 6.47989 4.11608 6.31298L4.32789 6.29454C5.4995 6.19255 6.0853 6.14156 6.53156 5.81907C6.97781 5.49659 7.19677 4.96602 7.6347 3.90488L7.67079 3.81742C8.44594 1.93914 8.83352 1 9.5 1C10.1665 1 10.5541 1.93914 11.3292 3.81742Z" fill="#FF9A20" stroke="#FF9A20"/>
</svg>
