<svg width="50" height="50" viewBox="0 0 50 50" fill="none" xmlns="http://www.w3.org/2000/svg">
<circle cx="25" cy="25" r="25" fill="#181818"/>
<path d="M28 16H19C18.1716 16 17.5 16.6716 17.5 17.5V20.5M14.5 34H28.75C29.5784 34 30.25 33.3284 30.25 32.5V22C30.25 21.1716 29.5784 20.5 28.75 20.5H14.5C13.6716 20.5 13 21.1716 13 22V32.5C13 33.3284 13.6716 34 14.5 34ZM35.9525 32.9308L30.25 30.4671V24.2995L35.9525 21.8358C36.4477 21.6219 37 21.9849 37 22.5243V32.2423C37 32.7816 36.4477 33.1447 35.9525 32.9308ZM26.5 25C26.0858 25 25.75 24.6642 25.75 24.25C25.75 23.8358 26.0858 23.5 26.5 23.5C26.9142 23.5 27.25 23.8358 27.25 24.25C27.25 24.6642 26.9142 25 26.5 25Z" stroke="white" stroke-linecap="round" stroke-linejoin="round"/>
</svg>
